<svg width="38" height="35" viewBox="0 0 38 35" fill="none" xmlns="http://www.w3.org/2000/svg">
<g clip-path="url(#clip0_2066_7)" filter="url(#filter0_d_2066_7)">
<path d="M17.7631 2.43464C17.7931 4.72997 17.7871 4.84938 17.7031 4.45798L17.6071 4.04668H16.1434H14.6797V4.84275V5.63882H16.2334H17.7931L17.8231 5.98378C17.8411 6.17616 17.8711 7.82801 17.8891 9.65233C17.9071 11.4767 17.9371 13.4071 17.9551 13.9445L17.9971 14.9263H18.459H18.9209L18.9629 13.9445C18.9809 13.4071 19.0109 11.4767 19.0289 9.65233C19.0469 7.82801 19.0768 6.17616 19.0948 5.98378L19.1248 5.63882H20.6845H22.2382V4.84275V4.04668H20.6725H19.1068L19.1488 2.02334L19.1968 -5.49294e-06H18.459H17.7271L17.7631 2.43464Z" fill="#7F05CC"/>
<path d="M9.99753 13.7985C9.24767 13.8516 8.24586 13.9909 8.14988 14.0572C8.10189 14.0904 7.81395 14.5681 6.54819 16.7174C5.60637 18.3229 5.10246 19.1654 4.83251 19.6231C4.67054 19.8885 4.53857 20.114 4.53857 20.1273C4.53857 20.1405 4.16664 20.7708 3.70473 21.5337C3.24881 22.2966 2.87689 22.9268 2.88288 22.9268C2.88888 22.9334 3.3328 22.7808 3.8727 22.5818C5.64836 21.9317 7.15407 21.6663 9.1277 21.6663C11.4253 21.6663 13.7468 22.1241 15.7804 22.9799C16.2543 23.1789 16.2423 23.1855 16.3923 22.6283C16.5843 21.9184 16.4283 21.3147 15.8164 20.4258C15.2285 19.5634 15.1505 18.9796 15.5285 18.3428C15.8584 17.7988 16.5663 17.3079 17.5561 16.943C17.838 16.8435 18.078 16.7506 18.09 16.7373C18.168 16.671 17.2621 15.8285 16.6083 15.3575C16.0564 14.9661 15.2945 14.5747 15.1805 14.6211C15.1326 14.641 15.1086 14.6344 15.1266 14.5946C15.1685 14.5216 14.4247 14.2563 13.6568 14.0771C12.607 13.8251 11.1733 13.7189 9.99753 13.7985Z" fill="#7F05CC"/>
<path d="M25.0733 13.8118C23.1657 13.9179 21.1981 14.6079 19.9743 15.5897C19.3444 16.1071 18.1567 17.3211 18.0307 17.5931C17.7007 18.3029 18.1327 19.1189 19.1705 19.7491C20.3762 20.4855 20.8381 21.0427 21.1201 22.0843C21.1741 22.2833 21.2161 22.5553 21.2161 22.6946V22.94L21.744 22.741C23.2197 22.1904 25.0073 21.8123 26.735 21.6796C29.1286 21.5005 31.6361 21.9317 33.9516 22.9268C34.0356 22.9599 34.0236 22.9069 33.8857 22.6813C33.6937 22.3695 29.5545 15.3442 29.0866 14.5482C28.9306 14.2828 28.7746 14.0506 28.7386 14.0373C28.5947 13.9776 27.1009 13.8052 26.5251 13.7853C26.1951 13.772 25.5412 13.7853 25.0733 13.8118Z" fill="#7F05CC"/>
<path d="M8.71784 22.5553C7.78801 22.6216 6.61824 22.8405 5.7484 23.1192C4.44665 23.5371 4.57863 23.4243 3.80477 24.7445C3.42684 25.3813 3.1269 25.912 3.1329 25.9253C3.1449 25.9319 3.49883 25.7462 3.92475 25.514C5.72441 24.5256 7.884 23.8157 10.0376 23.5106C10.9974 23.3713 13.145 23.3514 13.9668 23.4708C14.6927 23.5769 15.7005 23.7892 16.1204 23.9219C16.6963 24.101 16.5104 23.9683 15.7905 23.6897C14.2908 23.0993 12.4131 22.6813 10.7574 22.5553C9.78563 22.4889 9.78563 22.4889 8.71784 22.5553Z" fill="#7F05CC"/>
<path d="M26.5025 22.5287C25.0207 22.615 23.545 22.887 22.0873 23.358C21.4034 23.5769 20.4316 23.955 20.4616 23.9882C20.4736 24.0015 20.6956 23.955 20.9595 23.8821C24.4389 22.887 28.6261 23.3713 32.3813 25.1889C32.7953 25.388 33.2752 25.6467 33.4491 25.7528C33.6231 25.8656 33.7791 25.9452 33.7911 25.9319C33.7971 25.9187 33.4971 25.3747 33.1192 24.7312L32.4293 23.557L31.6975 23.2983C30.8156 22.9798 30.0538 22.7875 29.106 22.6614C28.3381 22.5553 27.1323 22.4956 26.5025 22.5287Z" fill="#7F05CC"/>
<path d="M10.7036 23.955C9.48583 24.0479 8.38804 24.2934 7.15228 24.7644L6.73836 24.917L6.06049 25.9585C5.68256 26.529 5.39461 27 5.40661 27C5.42461 27 5.62257 26.8939 5.85053 26.7678C7.21827 26.0049 9.31787 25.2619 10.9556 24.9501C12.8932 24.5853 14.9208 24.5919 16.9244 24.9767C17.2963 25.0496 16.7085 24.8042 15.9346 24.572C14.9388 24.2668 13.697 24.0346 12.6352 23.9484C11.6874 23.8754 11.7234 23.8754 10.7036 23.955Z" fill="#7F05CC"/>
<path d="M24.2452 23.955C23.4353 24.0081 22.2116 24.2138 21.4917 24.4194C20.8858 24.5853 19.83 24.9568 19.86 24.9899C19.872 25.0032 20.112 24.97 20.3999 24.9103C21.8816 24.6251 23.9932 24.6118 25.5289 24.8705C27.4306 25.2022 29.5602 25.9319 31.1259 26.8076C31.3178 26.9138 31.4858 27 31.5038 27C31.5158 27 31.2278 26.529 30.8499 25.9585C30.19 24.9501 30.16 24.917 29.8481 24.7909C29.1582 24.5256 28.3064 24.2735 27.6405 24.1474C27.0346 24.028 25.4269 23.8688 25.085 23.8953C25.019 23.8953 24.6411 23.9219 24.2452 23.955Z" fill="#7F05CC"/>
</g>
<defs>
<filter id="filter0_d_2066_7" x="0" y="0" width="40" height="42" filterUnits="userSpaceOnUse" color-interpolation-filters="sRGB">
<feFlood flood-opacity="0" result="BackgroundImageFix"/>
<feColorMatrix in="SourceAlpha" type="matrix" values="0 0 0 0 0 0 0 0 0 0 0 0 0 0 0 0 0 0 127 0" result="hardAlpha"/>
<feOffset dy="4"/>
<feGaussianBlur stdDeviation="2"/>
<feComposite in2="hardAlpha" operator="out"/>
<feColorMatrix type="matrix" values="0 0 0 0 0 0 0 0 0 0 0 0 0 0 0 0 0 0 0.25 0"/>
<feBlend mode="normal" in2="BackgroundImageFix" result="effect1_dropShadow_2066_7"/>
<feBlend mode="normal" in="SourceGraphic" in2="effect1_dropShadow_2066_7" result="shape"/>
</filter>
<clipPath id="clip0_2066_7">
<rect width="32" height="34" fill="white" transform="translate(4)"/>
</clipPath>
</defs>
</svg>
